<?xml version="1.0" encoding="UTF-8"?>
<svg width="80px" height="80px" viewBox="0 0 80 80" version="1.1" xmlns="http://www.w3.org/2000/svg" xmlns:xlink="http://www.w3.org/1999/xlink">
    <defs>
        <radialGradient cx="50%" cy="0%" fx="50%" fy="0%" r="100%" id="radialGradient-1">
            <stop stop-color="#F8EE08" offset="0%"></stop>
            <stop stop-color="#00AAAA" offset="100%"></stop>
        </radialGradient>
    </defs>
    <g id="phase-3" stroke="none" stroke-width="1" fill="none" fill-rule="evenodd">
        <g id="phs3---start---select-language" transform="translate(-144.000000, -203.000000)" fill-rule="nonzero">
            <g id="Logo" transform="translate(144.000000, 203.000000)">
                <circle id="Oval" fill="url(#radialGradient-1)" cx="40" cy="40" r="40"></circle>
                <path d="M61.8904959,17.5848056 C62.0764463,17.7604255 62.2623967,17.9360453 62.4483471,18.1219957 C62.6859504,18.5868717 62.2623967,18.7831527 62.0557851,19.0620784 C61.8595041,19.2480288 61.6528926,19.4443098 61.4669421,19.6405908 C61.2706612,19.8265412 61.0847107,20.0228222 60.8780992,20.2087726 C60.785124,20.2914172 60.6818182,20.3534007 60.5578512,20.3843924 C60.0103306,20.3637312 59.6797521,19.9814998 59.2871901,19.6819131 C58.8429752,19.217037 58.3884298,18.7624916 57.8512397,18.4112519 C57.427686,17.9876982 56.8904959,17.698442 56.4049587,17.3368717 C55.857438,16.9236486 55.268595,16.5930701 54.6694215,16.2624916 C54.3078512,16.0042271 53.9152893,15.787285 53.5123967,15.6013346 C52.9132231,15.3017478 52.3243802,14.9814998 51.7045455,14.7129048 C51.053719,14.4546403 50.4235537,14.1653841 49.7417355,13.9897643 C48.6466942,13.6281941 47.5619835,13.2666238 46.4152893,13.1323263 C45.8057851,13.0290205 45.196281,12.8637312 44.5764463,12.8017478 C43.9256198,12.7914172 43.285124,12.5951362 42.6342975,12.6261279 C42.0557851,12.6467891 41.4772727,12.6467891 40.8987603,12.6261279 C39.9070248,12.6777808 38.9152893,12.5538139 37.9338843,12.7087726 C35.8471074,12.9050536 33.8119835,13.3182767 31.8285124,14.0000949 C31.7045455,14.0414172 31.5702479,14.0724089 31.4359504,14.1240618 C31.1880165,14.1963759 30.9504132,14.2686899 30.7128099,14.3823263 C29.7417355,14.7748883 28.7809917,15.1777808 27.8719008,15.7046403 C27.4793388,15.9215825 27.0661157,16.0972023 26.6735537,16.324475 C26.2913223,16.5414172 25.9400826,16.7996817 25.5681818,17.037285 C25.072314,17.3575329 24.5661157,17.6674503 24.1219008,18.0496817 C23.6983471,18.4009213 23.2438017,18.7108387 22.8409091,19.0827395 C22.5826446,19.2480288 22.3347107,19.4339792 22.1280992,19.6612519 C21.7665289,20.002161 21.4256198,20.3637312 21.0743802,20.7149709 C20.7644628,21.0145577 20.464876,21.3141445 20.1756198,21.6240618 C19.9070248,21.9029874 19.7210744,22.2438965 19.4524793,22.5228222 C19.1528926,22.8740618 18.8946281,23.2666238 18.5847107,23.5972023 C18.3264463,23.9381114 18.0991736,24.2996817 17.8719008,24.6612519 C17.6239669,25.0228222 17.3863636,25.3843924 17.1590909,25.7459627 C16.8698347,26.1798469 16.6838843,26.6757147 16.4256198,27.1302602 C16.177686,27.4608387 16.0123967,27.8224089 15.8884298,28.2149709 C15.5785124,28.824475 15.2892562,29.4443098 15.0619835,30.0951362 C14.6694215,31.05588 14.411157,32.0579461 14.1322314,33.0600122 C13.8946281,33.8864585 13.7396694,34.7232354 13.6363636,35.5703428 C13.5123967,36.4691031 13.357438,37.3575329 13.3367769,38.2666238 C13.3677686,39.1137312 13.357438,39.9608387 13.357438,40.8079461 C13.285124,41.8306734 13.5020661,42.8430701 13.6053719,43.8554668 C13.7603306,44.9505081 13.9566116,46.0248883 14.2975207,47.0786073 C14.5041322,47.9980288 14.803719,48.8864585 15.1652893,49.7542271 C15.2479339,49.9505081 15.2995868,50.1571197 15.3822314,50.3534007 C15.6404959,50.9629048 15.9607438,51.5517478 16.2603306,52.1405908 C16.642562,53.0083593 17.1487603,53.8141445 17.6549587,54.609599 C17.9442149,55.0848056 18.2541322,55.5600122 18.5847107,56.0145577 C18.9152893,56.4587726 19.2355372,56.913318 19.6384298,57.2955494 C19.9896694,57.8224089 20.4235537,58.2769544 20.8884298,58.7108387 C21.25,59.0827395 21.6115702,59.4443098 21.9834711,59.80588 C22.3243802,60.2087726 22.7789256,60.4773676 23.1714876,60.8182767 C23.357438,61.0145577 23.5433884,61.2108387 23.7809917,61.3451362 C23.9152893,61.4277808 24.0495868,61.520756 24.1735537,61.6240618 C24.535124,61.913318 24.9380165,62.1405908 25.3305785,62.3885246 C29.1942149,65.0641445 33.5020661,66.5104255 38.1404959,66.9649709 C39.6797521,67.109599 41.2396694,66.9959627 42.7789256,66.9959627 C47.5103306,66.5620784 51.8904959,65.1467891 55.785124,62.3678635 C55.9297521,62.2645577 56.0847107,62.1715825 56.2396694,62.0889379 C56.8698347,61.7996817 57.3657025,61.3141445 57.9028926,60.8905908 C58.553719,60.3740618 58.553719,60.2397643 57.964876,59.6199296 C57.7582645,59.4029874 57.5413223,59.1963759 57.3347107,58.9897643 C57.1487603,58.7934833 56.9524793,58.5868717 56.7561983,58.3905908 C56.6219008,58.2459627 56.4772727,58.1116651 56.3326446,57.9773676 C56.0640496,57.7087726 55.7954545,57.4505081 55.5165289,57.2025742 C54.1528926,55.859599 54.1838843,55.8905908 52.5929752,56.9649709 C49.0702479,59.3306734 45.2376033,60.7356321 40.9400826,60.6839792 C40.196281,60.6736486 39.4524793,60.6839792 38.6983471,60.6839792 C36.2913223,60.4980288 33.9979339,59.8472023 31.8078512,58.8554668 C29.9793388,57.8637312 28.1714876,56.8306734 26.642562,55.394723 C25.9917355,54.7025742 25.3099174,54.0517478 24.6384298,53.3802602 C24.2458678,52.9257147 23.9049587,52.4195164 23.5330579,51.9443098 C23.3264463,51.6963759 23.1404959,51.4277808 22.9855372,51.1488552 C22.7376033,50.7356321 22.4793388,50.3224089 22.2623967,49.8885246 C22.0867769,49.5166238 21.9008264,49.144723 21.7045455,48.7831527 C21.2913223,47.9876982 20.9607438,47.1509213 20.6508264,46.3141445 C20.6095041,46.1901775 20.5785124,46.0662106 20.5578512,45.9319131 C20.4855372,45.5393511 20.3202479,45.1777808 20.2376033,44.7955494 C20.1239669,44.2583593 20.0413223,43.7211693 19.9070248,43.1839792 C19.8347107,42.9050536 19.8450413,42.6054668 19.7933884,42.3265412 C19.6280992,41.6860453 19.6384298,41.0352189 19.6487603,40.3740618 C19.6280992,40.0228222 19.6487603,39.6612519 19.6384298,39.3100122 C19.6590909,39.0620784 19.6487603,38.8038139 19.6487603,38.55588 C19.6797521,37.5538139 19.8553719,36.5827395 20.0309917,35.6013346 C20.1549587,35.1054668 20.2789256,34.5992684 20.4338843,34.1137312 C20.6198347,33.5765412 20.7128099,33.0083593 20.9710744,32.4918304 C21.1466942,32.109599 21.2706612,31.717037 21.4772727,31.3451362 C21.5495868,31.2005081 21.6219008,31.05588 21.6942149,30.9112519 C21.8904959,30.5186899 22.0867769,30.1261279 22.2727273,29.7232354 C22.4896694,29.2893511 22.7376033,28.8761279 22.9958678,28.4629048 C23.357438,27.9773676 23.6466942,27.4401775 24.0599174,26.9959627 C24.338843,26.7067065 24.5247934,26.3554668 24.8140496,26.0662106 C25.392562,25.5703428 25.7024793,24.8265412 26.3739669,24.4236486 C26.6115702,24.2790205 26.7975207,24.0930701 27.0041322,23.9071197 C27.3140496,23.6695164 27.6342975,23.4525742 27.9132231,23.1736486 C28.3471074,22.8740618 28.7293388,22.5228222 29.1942149,22.2748883 C29.6177686,22.0166238 30.0516529,21.7790205 30.464876,21.5000949 C31.4566116,20.8699296 32.5516529,20.4773676 33.6363636,20.0538139 C35.4958678,19.4339792 37.3760331,18.9794337 39.3491736,18.9174503 C41.25,18.9381114 43.1508264,18.824475 45.0206612,19.3203428 C46.2086777,19.6405908 47.4070248,19.9195164 48.5330579,20.4360453 C49.2768595,20.7976155 50.0103306,21.1695164 50.7541322,21.5310866 C51.2603306,21.8100122 51.7252066,22.1509213 52.2107438,22.4608387 C52.4690083,22.6467891 52.7272727,22.8327395 52.9958678,22.9980288 C53.5123967,23.2976155 53.8842975,23.7831527 54.3904959,24.0930701 C54.6797521,24.3100122 54.927686,24.5889379 55.1859504,24.8368717 C55.5785124,25.3534007 56.2603306,25.6323263 56.3842975,26.3657974 C55.1549587,27.894723 53.6570248,29.1550536 52.3243802,30.5703428 C51.5392562,31.3348056 50.7747934,32.1199296 50,32.894723 C49.6797521,33.1943098 49.3698347,33.5042271 49.0702479,33.824475 C48.5847107,34.2893511 48.1095041,34.7748883 47.6446281,35.2604255 C47.107438,35.787285 46.5805785,36.324475 46.0433884,36.8616651 C45.6714876,37.2129048 45.3202479,37.574475 44.9586777,37.9360453 C44.7004132,38.1839792 44.4524793,38.4319131 44.214876,38.6798469 C43.7293388,39.1550536 43.2541322,39.6302602 42.7892562,40.1157974 C42.3863636,40.5083593 41.9834711,40.9215825 41.5805785,41.324475 C41.4359504,41.4691031 41.2913223,41.6034007 41.1466942,41.7583593 C40.6921488,42.2129048 40.2376033,42.6674503 39.7727273,43.1323263 C39.5661157,43.3286073 39.3698347,43.5248883 39.1735537,43.7211693 C38.7706612,44.1137312 38.3780992,44.5166238 37.9855372,44.9091858 C37.8409091,45.0434833 37.7066116,45.1881114 37.5619835,45.3224089 C37.2004132,45.6839792 36.838843,46.0455494 36.4876033,46.4071197 C36.0433884,46.7583593 35.7747934,47.3265412 35.1549587,47.4608387 C34.7830579,47.4195164 34.5764463,47.1405908 34.3285124,46.9236486 C33.9772727,46.5620784 33.6260331,46.2005081 33.2644628,45.8492684 C32.9028926,45.4980288 32.8512397,45.1467891 33.2334711,44.7748883 C33.6570248,44.3513346 34.0909091,43.9277808 34.5041322,43.4938965 C34.8760331,43.1323263 35.2479339,42.770756 35.5991736,42.3885246 C36.0743802,41.8926569 36.6115702,41.4587726 37.0041322,40.8699296 C37.1487603,40.6736486 37.3347107,40.5186899 37.5309917,40.3843924 C37.9028926,40.1467891 38.1818182,39.8265412 38.481405,39.5166238 C38.9566116,39.0517478 39.4214876,38.5868717 39.8760331,38.1116651 C40.3099174,37.698442 40.7231405,37.2748883 41.1466942,36.841004 C41.6322314,36.3761279 42.107438,35.8905908 42.5826446,35.4153841 C43.0061983,35.002161 43.4194215,34.5786073 43.8429752,34.1550536 C44.214876,33.8038139 44.5764463,33.4319131 44.927686,33.0703428 C45.464876,32.5434833 45.9917355,32.0062932 46.5289256,31.4691031 C46.9008264,31.1178635 47.2623967,30.7459627 47.6239669,30.3843924 C48.1095041,29.9195164 48.5847107,29.4339792 49.0495868,28.948442 C49.4834711,28.5352189 49.9070248,28.1116651 50.3202479,27.6777808 C50.5785124,27.4298469 50.8057851,27.1405908 51.0847107,26.9236486 C51.642562,26.5000949 51.6322314,26.1385246 51.0330579,25.787285 C50.6921488,25.5186899 50.3099174,25.2914172 49.9483471,25.0434833 C49.5764463,24.7955494 49.214876,24.537285 48.8016529,24.3616651 C48.0681818,23.9897643 47.303719,23.6798469 46.518595,23.4319131 C45.2169421,22.9463759 43.8842975,22.6364585 42.5,22.5124916 C41.25,22.4814998 39.9896694,22.5228222 38.7396694,22.4918304 C37.1177686,22.6261279 35.5681818,23.0290205 34.0702479,23.6385246 C33.4090909,23.8348056 32.8099174,24.1860453 32.1900826,24.4959627 C31.6219008,24.733566 31.1466942,25.1157974 30.6301653,25.4360453 C30.2995868,25.6529874 30,25.9112519 29.6797521,26.1385246 C29.2252066,26.5724089 28.75,26.9856321 28.2541322,27.3678635 C27.8409091,27.7397643 27.5929752,28.2459627 27.1797521,28.6178635 C26.7665289,29.0414172 26.4359504,29.5269544 26.1053719,30.0124916 C25.7747934,30.467037 25.5165289,30.9629048 25.2272727,31.448442 C24.9690083,31.9236486 24.7210744,32.4091858 24.5247934,32.9050536 C24.142562,33.7418304 23.8842975,34.6302602 23.6570248,35.5186899 C23.5640496,35.8182767 23.5330579,36.1385246 23.4710744,36.448442 C23.3780992,37.109599 23.1818182,37.7500949 23.2128099,38.4215825 C23.2231405,38.8657974 23.2334711,39.3100122 23.2128099,39.7542271 C23.2128099,40.1364585 23.2128099,40.5290205 23.2024793,40.9112519 C23.1714876,41.5827395 23.3161157,42.233566 23.3884298,42.894723 C23.4090909,43.0186899 23.4504132,43.1426569 23.481405,43.2769544 C23.5743802,43.7831527 23.6673554,44.2996817 23.822314,44.7955494 C23.9876033,45.4567065 24.2768595,46.0765412 24.5144628,46.7067065 C24.6590909,47.0889379 24.8450413,47.4401775 25.0309917,47.8017478 C25.1756198,48.1219957 25.3512397,48.4215825 25.5578512,48.7108387 C25.6404959,48.8451362 25.7128099,48.9897643 25.785124,49.1240618 C25.981405,49.4753015 26.2086777,49.7955494 26.4566116,50.1054668 C26.714876,50.4980288 27.0041322,50.859599 27.3450413,51.1901775 C27.5826446,51.5000949 27.7789256,51.8306734 28.0785124,52.0889379 C28.3884298,52.4505081 28.7809917,52.7191031 29.1632231,52.9980288 C29.803719,53.5972023 30.4855372,54.1240618 31.25,54.5476155 C33.8016529,56.1798469 36.6115702,57.0166238 39.607438,57.2438965 C41.9008264,57.4195164 44.1322314,57.0062932 46.3016529,56.3038139 C48.357438,55.6426569 50.1446281,54.5062932 51.8181818,53.163318 C52.0557851,52.9980288 52.2520661,52.7914172 52.4483471,52.5848056 C52.7995868,52.2438965 53.1404959,51.8926569 53.4917355,51.5414172 C53.6466942,51.3967891 53.7913223,51.252161 53.9876033,51.1695164 C54.4318182,51.0868717 54.6487603,51.4174503 54.927686,51.6550536 C55.1136364,51.8513346 55.3099174,52.0476155 55.5061983,52.2438965 C55.6921488,52.4401775 55.8884298,52.6261279 56.0847107,52.8120784 C56.4152893,53.1426569 56.7458678,53.4732354 57.0764463,53.8038139 C57.2107438,53.9381114 57.3450413,54.0827395 57.4793388,54.217037 C57.6136364,54.3513346 57.7479339,54.4856321 57.892562,54.6199296 C58.1714876,54.8988552 58.4504132,55.1777808 58.7293388,55.4567065 C58.9772727,55.7149709 59.2355372,55.9732354 59.4938017,56.2211693 C60.072314,56.7996817 60.6508264,57.3781941 61.2396694,57.9567065 C61.5495868,58.2769544 61.8595041,58.5972023 62.1797521,58.9071197 C62.5309917,59.3203428 63.0268595,59.609599 63.2334711,60.1467891 C63.2541322,60.6013346 62.9132231,60.8286073 62.6549587,61.1075329 C59.1942149,64.80588 55.0413223,67.3988552 50.2376033,68.9794337 C49.9586777,69.0724089 49.6797521,69.1860453 49.3904959,69.2686899 C47.0764463,69.9711693 44.7210744,70.4257147 42.303719,70.5290205 C39.1322314,70.6426569 35.981405,70.394723 32.892562,69.6302602 C32.3450413,69.4959627 31.7975207,69.3306734 31.2809917,69.1137312 C30.9917355,69.0620784 30.7334711,68.948442 30.464876,68.8348056 C28.9669421,68.3079461 27.5309917,67.6467891 26.1260331,66.9236486 C25.6198347,66.6653841 25.1342975,66.3864585 24.7520661,65.9525742 C23.9669421,65.4257147 23.1921488,64.8988552 22.4070248,64.3719957 C21.5289256,63.6798469 20.7644628,62.8327395 19.7417355,62.3265412 C19.1219008,61.9443098 18.7190083,61.3348056 18.1818182,60.8699296 C17.768595,60.4980288 17.5103306,59.9918304 17.107438,59.6199296 C16.9421488,59.4443098 16.7871901,59.2583593 16.6528926,59.0620784 C16.1260331,58.4009213 15.588843,57.7500949 15.1239669,57.0476155 C14.927686,56.7376982 14.731405,56.4277808 14.5454545,56.1178635 C14.1012397,55.4153841 13.6466942,54.7129048 13.2747934,53.948442 C12.7272727,52.9050536 12.2623967,51.8203428 11.8285124,50.7253015 C11.5392562,50.002161 11.3016529,49.2686899 11.0743802,48.5352189 C10.785124,47.5641445 10.5165289,46.5827395 10.3512397,45.5806734 C10.2995868,45.2604255 10.1652893,44.9401775 10.3719008,44.6302602 C10.2582645,43.6178635 10.1446281,42.5951362 10.0309917,41.5827395 C10.0206612,40.8079461 10.0103306,40.0228222 10,39.2480288 C10.0619835,38.287285 10.1239669,37.3368717 10.1859504,36.3761279 C10.4855372,34.8265412 10.785124,33.2666238 11.0847107,31.717037 C11.3946281,30.7562932 11.7045455,29.80588 12.0041322,28.8451362 C12.5516529,27.6674503 13.088843,26.4794337 13.6363636,25.3017478 C13.7603306,24.733566 14.0599174,24.2583593 14.3595041,23.7728222 C14.535124,23.5145577 14.7107438,23.2562932 14.8863636,22.9876982 C15.1446281,22.5951362 15.4028926,22.2129048 15.661157,21.8203428 C15.8471074,21.5724089 16.0640496,21.3451362 16.2190083,21.0765412 C16.5289256,20.7253015 16.7665289,20.3224089 17.0867769,19.9814998 C17.2830579,19.7852189 17.4793388,19.5992684 17.6446281,19.3823263 C17.9338843,18.9381114 18.3057851,18.5662106 18.6880165,18.1943098 C18.8946281,17.9980288 19.0909091,17.8017478 19.2871901,17.5951362 C19.5867769,17.2645577 19.9690083,17.0269544 20.3099174,16.7376982 C20.5165289,16.5517478 20.7128099,16.3554668 20.9090909,16.1695164 C21.3016529,15.9009213 21.6528926,15.591004 22.0041322,15.2810866 C22.427686,14.9918304 22.8202479,14.6612519 23.2541322,14.3823263 C23.6363636,14.1550536 23.9876033,13.8967891 24.3595041,13.6488552 C24.9070248,13.3905908 25.3719008,12.9463759 26.0227273,12.894723 C26.4256198,12.8120784 26.7561983,12.5848056 27.0764463,12.3472023 C27.5413223,11.9339792 28.0165289,11.5620784 28.6880165,11.6240618 C29.8863636,11.2005081 31.0743802,10.787285 32.2727273,10.3637312 C33.7706612,10.0641445 35.2582645,9.76455769 36.7561983,9.45464034 C37.3657025,9.50629323 37.9545455,9.37199571 38.5433884,9.2790205 C39.2665289,8.81414447 40.072314,9.08273951 40.8471074,9.03108662 C41.714876,9.02075604 42.5826446,8.97943373 43.4607438,9.06207835 C43.9566116,9.16538414 44.4731405,9.21703703 44.9690083,9.28935108 C46.2086777,9.50629323 47.4586777,9.67158249 48.677686,10.002161 C49.1012397,10.1674503 49.5454545,10.2810866 49.9896694,10.3843924 C50.5268595,10.5806734 51.0743802,10.7356321 51.6219008,10.9319131 C52.1694215,11.1901775 52.7272727,11.3864585 53.285124,11.6034007 C53.8016529,11.8100122 54.2768595,12.0889379 54.7830579,12.3162106 C55.4338843,12.7087726 56.1983471,12.9360453 56.6735537,13.5765412 C57.0764463,13.824475 57.4690083,14.0724089 57.8719008,14.3306734 C58.4194215,14.413318 58.8119835,14.7852189 59.2458678,15.0848056 C59.6384298,15.4773676 60.1239669,15.7666238 60.5371901,16.1488552 C61.1157025,16.5620784 61.5495868,17.0269544 61.8904959,17.5848056 Z" id="Path" fill="#FFFFFF"></path>
            </g>
        </g>
    </g>
</svg>