<?xml version="1.0" encoding="UTF-8"?>
<svg width="34px" height="34px" viewBox="0 0 34 34" version="1.1" xmlns="http://www.w3.org/2000/svg" xmlns:xlink="http://www.w3.org/1999/xlink">
    <g id="Dark-Version" stroke="none" stroke-width="1" fill="none" fill-rule="evenodd">
        <g id="D-0.2.Signup" transform="translate(-36.000000, -565.000000)">
            <g id="Content" transform="translate(24.000000, 201.000000)">
                <g id="Button---Sign-up" transform="translate(0.000000, 352.000000)">
                    <g id="Google" transform="translate(12.000000, 12.000000)">
                        <g id="google-icon" transform="translate(7.727273, 7.727273)" fill-rule="nonzero">
                            <path d="M18.5366165,9.66761506 C18.5366165,8.89000994 18.4735185,8.3225625 18.3369631,7.73410653 L9.45745739,7.73410653 L9.45745739,11.2438338 L14.669527,11.2438338 C14.5644844,12.1160497 13.9970369,13.4295895 12.7360185,14.3122372 L12.7183423,14.4297401 L15.5258778,16.6047017 L15.7203878,16.6241165 C17.5067642,14.9742955 18.5366165,12.5468693 18.5366165,9.66761506" id="Path" fill="#4285F4"></path>
                            <path d="M9.45745739,18.9149148 C12.0109347,18.9149148 14.1546009,18.0742116 15.7203878,16.6241165 L12.7360185,14.3122372 C11.9374048,14.8691804 10.8655355,15.257983 9.45745739,15.257983 C6.95650142,15.257983 4.83384375,13.6082344 4.07717472,11.3279403 L3.9662642,11.337358 L1.04694886,13.5966435 L1.00877131,13.7027727 C2.56398153,16.7921847 5.75850852,18.9149148 9.45745739,18.9149148" id="Path" fill="#34A853"></path>
                            <path d="M4.07717472,11.3279403 C3.87752131,10.7394844 3.76197443,10.1089389 3.76197443,9.45745739 C3.76197443,8.80590341 3.87752131,8.1754304 4.06667045,7.58697443 L4.0613821,7.46164773 L1.10548295,5.16606818 L1.00877131,5.2120696 C0.367794034,6.49409659 0,7.93375994 0,9.45745739 C0,10.9811548 0.367794034,12.4207457 1.00877131,13.7027727 L4.07717472,11.3279403" id="Path" fill="#FBBC05"></path>
                            <path d="M9.45745739,3.65685938 C11.2333295,3.65685938 12.43125,4.42396023 13.1143168,5.06500994 L15.7834134,2.45893892 C14.144169,0.935241477 12.0109347,0 9.45745739,0 C5.75850852,0 2.56398153,2.12265767 1.00877131,5.2120696 L4.06667045,7.58697443 C4.83384375,5.3066804 6.95650142,3.65685938 9.45745739,3.65685938" id="Path" fill="#EB4335"></path>
                        </g>
                    </g>
                </g>
            </g>
        </g>
    </g>
</svg>