<svg width="22" height="22" viewBox="0 0 22 22" xmlns="http://www.w3.org/2000/svg"><g fill-rule="nonzero" stroke-width=".5" fill="none"><path d="M20.583 18.5H3.5V1.417a.417.417 0 0 0-.833 0V18.5h-1.25a.417.417 0 0 0 0 .833h1.25v1.25a.417.417 0 0 0 .833 0v-1.25h17.083a.417.417 0 0 0 0-.833z" stroke="#FFF" fill="#FFF"/><path d="M6.374 16c.11 0 .22-.053.293-.156l2.739-3.803 1.203 1.337c.081.091.194.134.312.12a.375.375 0 0 0 .276-.2l1.972-3.652 1.164 1.615c.09.127.238.182.379.145a.4.4 0 0 0 .28-.32l1.358-7.164 1.76 1.956c.078.086.178.13.292.121a.369.369 0 0 0 .273-.166l2.25-3.333a.448.448 0 0 0-.075-.583.35.35 0 0 0-.525.083l-1.992 2.95-1.944-2.16a.353.353 0 0 0-.372-.106.402.402 0 0 0-.26.314L14.42 10.05l-1.003-1.394a.375.375 0 0 0-.318-.156.375.375 0 0 0-.297.201l-2.002 3.71-1.16-1.29a.345.345 0 0 0-.286-.121.366.366 0 0 0-.272.156l-3 4.166a.45.45 0 0 0 .058.586c.07.061.152.091.234.091z" stroke="#27CFC3" fill="#27CFC3"/></g></svg>