<svg width="22" height="22" viewBox="0 0 22 22" xmlns="http://www.w3.org/2000/svg"><g fill="none" fill-rule="evenodd"><path d="M11 1c5.514 0 10 4.486 10 10s-4.486 10-10 10S1 16.514 1 11 5.486 1 11 1zm0 1c-4.963 0-9 4.037-9 9s4.037 9 9 9 9-4.037 9-9-4.037-9-9-9z" stroke="#FFF" stroke-width=".5" fill="#FFF" fill-rule="nonzero"/><path d="M11.048 17.072a.874.874 0 0 1-.588-.235.877.877 0 0 1-.25-.603c0-.217.084-.418.235-.586.335-.335.888-.318 1.189 0a.78.78 0 0 1 .251.586.861.861 0 0 1-.236.587.843.843 0 0 1-.601.25zM11.048 13.722a.837.837 0 0 1-.837-.839l.003-1.674c0-.397.28-.737.666-.819l.183-.035c1.703-.313 2.495-.84 2.495-1.656 0-.908-1.152-1.675-2.515-1.675-1.311 0-2.438.712-2.512 1.584a.845.845 0 0 1-.904.764.837.837 0 0 1-.764-.905c.152-1.778 1.95-3.118 4.181-3.118 2.312 0 4.19 1.502 4.19 3.35 0 1.599-1.125 2.672-3.347 3.195l-.002.993a.838.838 0 0 1-.837.835z" fill="#27CFC3"/></g></svg>