<?xml version="1.0" encoding="UTF-8"?>
<svg width="64px" height="64px" viewBox="0 0 164 154" version="1.1" xmlns="http://www.w3.org/2000/svg" xmlns:xlink="http://www.w3.org/1999/xlink">
    <g id="Dark-Version" stroke="none" stroke-width="1" fill="none" fill-rule="evenodd">
        <g id="D-0.1.Splash">
            <g id="Logo" >
                <g id="Symbol" transform=" scale(-1, 1) rotate(90.000000)" >
                    <path d="M3.38823529,94.8705882 L3.38823529,109.279963 C3.38823529,111.429182 5.12964139,113.170588 7.27886029,113.170588 C9.42807889,113.170588 11.1694853,111.429182 11.1694853,109.279963 L11.1694853,94.8705882 L3.38823529,94.8705882 Z" id="Path" fill="#D3E4EB"></path>
                    <path d="M25.8518382,94.8705882 L25.8518382,109.279963 C25.8518382,111.429182 24.1104318,113.170588 21.9612132,113.170588 C19.8119943,113.170588 18.0705882,111.429182 18.0705882,109.279963 L18.0705882,94.8705882 L25.8518382,94.8705882 Z" id="Path" fill="#D3E4EB"></path>
                    <path d="M3.1628907,86.9179686 C3.1628907,86.9179686 2.4222657,76.1214843 9.2917968,72.1535157 L14.4339843,67.453125 L19.5761718,72.1535157 C26.4445314,76.1203125 25.7050782,86.9179686 25.7050782,86.9179686 L14.4339843,92.3496093 L3.1628907,86.9179686 Z" id="Path" fill="#27C556"></path>
                    <path d="M85.5820314,23.2675782 C83.0496093,21.684375 79.8421875,21.684375 77.3097657,23.2675782 C61.2222657,33.3269532 50.5207032,51.1992186 50.5207032,71.5722657 C50.5207032,93.6445314 63.0820314,112.782422 81.4453125,122.228906 C99.8085936,112.782422 112.371094,93.6445314 112.371094,71.5722657 C112.371094,51.1992186 101.669531,33.3269532 85.5820314,23.2675782 Z" id="Path" fill="#27C556"></path>
                    <path d="M132.432422,21.1675782 C118.782422,7.5175782 100.674609,0 81.4453125,0 C62.1726564,0 44.053125,7.5058593 30.4253907,21.1335936 C16.7976564,34.7613282 9.2917968,52.8808593 9.2917968,72.1546875 L19.5761718,72.1546875 C19.5761718,38.0390625 47.3308593,10.284375 81.4453125,10.284375 C97.9277343,10.284375 113.452734,16.7320314 125.160937,28.4390625 C136.867969,40.1472657 143.315625,55.6722657 143.315625,72.1546875 C143.315625,86.5382814 138.270703,100.548047 129.110156,111.603516 C120.064453,122.518359 107.477344,130.052344 93.665625,132.817969 C91.3113282,133.289062 89.6074218,132.251953 88.8023436,131.591016 C87.3949218,130.437891 86.5875,128.735156 86.5875,126.91875 L86.5875,95.278125 L98.90625,88.5164064 C101.395312,87.1488282 102.305859,84.0234375 100.938281,81.534375 C99.571875,79.0441407 96.4464843,78.1347657 93.9574218,79.5011718 L86.5875,83.5464843 L86.5875,70.9371093 L98.90625,64.1742186 C101.395312,62.8078125 102.305859,59.68125 100.938281,57.1921875 C99.571875,54.7019532 96.4464843,53.7925782 93.9574218,55.1589843 L86.5875,59.2042968 L86.5875,46.8703125 C86.5875,44.0296875 84.2859375,41.728125 81.4464843,41.728125 C78.6058593,41.728125 76.3042968,44.0296875 76.3042968,46.8703125 L76.3042968,59.2042968 L68.9355468,55.1589843 C66.4453125,53.7925782 63.3199218,54.7019532 61.9535157,57.1921875 C60.5859375,59.68125 61.4964843,62.8078125 63.9855468,64.1742186 L76.3042968,70.9371093 L76.3042968,83.5464843 L68.9355468,79.5011718 C66.4453125,78.1347657 63.3199218,79.0453125 61.9535157,81.534375 C60.5859375,84.0234375 61.4964843,87.1488282 63.9855468,88.5164064 L76.3042968,95.278125 L76.3042968,126.91875 C76.3042968,131.828906 78.4839843,136.430859 82.2832032,139.545703 C85.2105468,141.944531 88.8152343,143.218359 92.5089843,143.218359 C93.5648436,143.218359 94.6277343,143.114063 95.6847657,142.903125 C111.800391,139.675781 126.483984,130.891406 137.028516,118.166016 C147.714844,105.269531 153.6,88.9289064 153.6,72.1546875 C153.6,52.9253907 146.082422,34.8175782 132.432422,21.1675782 Z" id="Path" fill="#6FDE90"></path>
                    <polygon id="Path" fill="#879EA8" points="18.0705882 89.2235294 25.8518382 89.2235294 25.8518382 99.8875919 18.0705882 99.8875919"></polygon>
                    <polygon id="Path" fill="#879EA8" points="3.38823529 99.8875919 11.1694853 99.8875919 11.1694853 89.2235294 3.38823529 89.2235294"></polygon>
                    <path d="M25.7050782,86.9179686 L3.1628907,86.9179686 C1.415625,86.9179686 0,88.3335936 0,90.0808593 L0,94.6183593 C0,96.365625 1.415625,97.78125 3.1628907,97.78125 L25.7050782,97.78125 C27.4511718,97.78125 28.8679686,96.365625 28.8679686,94.6183593 L28.8679686,90.0808593 C28.8679686,88.3335936 27.4511718,86.9179686 25.7050782,86.9179686 L25.7050782,86.9179686 Z" id="Path" fill="#6FDE90"></path>
                </g>
            </g>
        </g>
    </g>
</svg>