<?xml version="1.0" encoding="utf-8"?>
<!DOCTYPE svg PUBLIC "-//W3C//DTD SVG 1.1//EN" "http://www.w3.org/Graphics/SVG/1.1/DTD/svg11.dtd">
<svg version="1.1" id="Layer_1" xmlns="http://www.w3.org/2000/svg" xmlns:xlink="http://www.w3.org/1999/xlink"
     width="40px" height="40px" viewBox="0 0 864 864"  xml:space="preserve">
<g>
	<path fill-rule="evenodd" fill="#879EA8" clip-rule="evenodd" d="M523.643,794.457c-1.101,0-1.977,0-2.853,0c-50.8,0-101.6,0-152.399,0
		c-0.4,0-0.806-0.044-1.199,0.008c-1.233,0.163-1.854-0.406-2.321-1.53c-2.209-5.314-4.497-10.597-6.752-15.891
		c-42.771-100.376-85.54-200.753-128.312-301.128C203.422,414,177.037,352.083,150.641,290.172
		c-1.427-3.346-0.692-2.837-4.307-2.843c-13.6-0.022-27.2-0.009-40.799-0.009c-0.866,0-1.732,0-2.754,0c0-42.646,0-85.076,0-127.665
		c103.865,0,207.667,0,311.473,0c0.508,1.675,0.733,122.636,0.194,127.604c-2.621,0.133-5.308,0.041-7.989,0.058
		c-2.72,0.017-5.44,0.004-8.16,0.004c-2.8,0-5.601,0-8.4,0c-2.72,0-5.44,0-8.16,0c-2.713,0-5.427,0-8.544,0
		c0.299,1.051,0.487,1.86,0.758,2.64c6.604,19.026,13.219,38.048,19.827,57.073c15.102,43.484,30.325,86.928,45.22,130.483
		c4.056,11.858,7.226,24.027,10.617,36.105c4.213,15.003,8.139,30.083,11.218,45.37c0.045,0.222,0.191,0.423,0.467,1.009
		c0.24-0.819,0.427-1.337,0.543-1.868c7.449-33.965,18.279-66.874,30.727-99.301c21.567-56.186,42.982-112.431,64.457-168.653
		c0.305-0.799,0.553-1.619,0.969-2.844c-13.557-0.036-26.784,0.005-39.957-0.024c-0.509-1.913-0.643-124.481-0.164-127.645
		c80.963,0,161.951,0,242.935,0c0.452,1.743,0.588,124.126,0.108,127.563c-13.752,0-27.547,0-41.513,0
		C654.109,456.413,588.881,625.424,523.643,794.457z M600.459,209.891c1.264,0,2.206-0.029,3.146,0.004
		c16.179,0.582,27.024,17.619,20.523,32.456c-3.745,8.547-10.438,13.308-19.779,14.221c-1.235,0.121-2.475,0.194-3.872,0.302
		c0,2.888,0,5.508,0,8.178c-0.79,0.166-1.405,0.31-2.026,0.42c-0.708,0.125-1.431,0.178-2.131,0.336
		c-12.535,2.827-21.039,10.348-25.623,22.276c-8.457,22.007-16.838,44.044-25.244,66.071c-0.213,0.557-0.355,1.142-0.607,1.963
		c3.125-0.786,5.627-2.165,8.037-3.708c6.024-3.859,10.323-9.203,13.021-15.642c2.023,0,3.766,0,5.475,0
		c5.705,12.586,15.496,19.461,29.195,21.218c0,2.823,0,5.506,0,8.367c6.715-0.204,12.581,1.519,17.471,5.892
		c4.945,4.424,7.635,9.955,7.895,16.633c0.232,5.935-1.526,11.205-5.288,15.776c-5.146,6.254-12.013,8.729-20.167,8.672
		c0,2.881,0,5.562,0,8.312c-13.666,1.756-23.377,8.633-29.07,21.098c-1.825,0-3.641,0-5.494,0
		c-5.705-12.548-15.527-19.405-29.266-21.135c0-2.824,0-5.506,0-8.291c-4.533-0.055-8.693-0.662-12.744-2.724
		c-2.455,6.427-4.806,12.583-7.166,18.764c5.406,4.122,11.388,6.094,18.039,6.867c0,2.862,0,5.542,0,8.445
		c1.211,0,2.16-0.036,3.105,0.005c14.793,0.648,25.357,15.172,21.432,29.451c-2.787,10.139-11.34,16.842-22.187,17.393
		c-0.763,0.038-1.524,0.112-2.453,0.182c0,2.84,0,5.457,0,8.193c-13.662,1.729-23.467,8.599-29.22,21.293
		c-1.142,0-2.336-0.074-3.518,0.02c-1.383,0.111-2.137-0.352-2.719-1.701c-2.03-4.711-5.186-8.607-9.166-11.832
		c-0.473-0.383-1.019-0.675-1.754-1.154c-2.014,6.607-3.959,12.988-5.871,19.262c9.748,7.474,13.47,15.267,11.324,25.068
		c-2.528,11.549-10.325,17.552-21.879,19.051c-1.746,8.208-2.441,16.463-3.029,24.798c-5.177,0-10.098,0-15.129,0
		c-0.643-3.568-0.34-7.159-1.146-10.886c-5.141,3.428-9.075,7.492-11.46,12.768c-1.086,2.403-2.439,3.121-4.901,2.911
		c-1.432-0.122-2.22-0.444-2.897-1.821c-5.465-11.092-14.423-17.418-26.634-19.198c-0.526-0.077-1.036-0.269-1.793-0.471
		c0-2.742,0-5.416,0-8.204c-6.742,0.127-12.601-1.613-17.475-6.026c-4.857-4.397-7.495-9.893-7.79-16.449
		c-0.266-5.921,1.505-11.22,5.266-15.787c5.128-6.231,11.932-8.836,20.185-8.692c0-2.933,0-5.682,0-8.42
		c0.799-0.1,1.273-0.148,1.744-0.219c10.479-1.536,18.671-6.676,24.563-15.504c0.783-1.174,0.926-2.238,0.506-3.572
		c-1.199-3.811-2.259-7.664-3.434-11.482c-0.569-1.852-1.272-3.66-2.05-5.875c-5.13,9.59-12.971,13.896-23.426,13.846
		c0,2.882,0,5.496,0,8.273c-13.755,1.719-23.596,8.678-29.269,21.295c-1.473,0-2.829,0.01-4.184-0.006
		c-0.39-0.006-0.778-0.086-1.211-0.137c-5.664-12.526-15.466-19.404-29.186-21.156c0-2.818,0-5.498,0-8.338
		c-6.625,0.117-12.451-1.512-17.312-5.793c-4.841-4.263-7.586-9.615-8.011-16.091c-0.387-5.911,1.181-11.259,4.836-15.925
		c5.16-6.583,12.152-9.303,20.591-9.181c0-2.912,0-5.596,0-8.327c13.753-1.765,23.486-8.718,29.125-21.208c1.83,0,3.576,0,5.378,0
		c5.675,12.519,15.422,19.46,29.295,21.226c0,2.734,0,5.479,0,8.408c4.52-0.229,8.507,0.674,12.659,2.47
		c-0.318-1.085-0.486-1.761-0.713-2.415c-2.354-6.797-4.741-13.581-7.056-20.391c-0.488-1.437-1.009-2.686-2.762-2.729
		c-0.477-2.807,0.574-5.753-1.387-8.288c-4.957-0.102-9.64-1.219-13.809-4.064c-4.158-2.837-7.283-6.548-8.886-11.314
		c-3.672-10.914-0.482-19.903,8.178-27.276c-2.134-6.131-4.252-12.219-6.474-18.602c-4.155,3.582-6.943,7.782-8.898,12.404
		c-2.057,0-3.865,0-5.597,0c-5.746-12.554-15.526-19.332-29.141-21.099c0-2.805,0-5.487,0-8.371
		c-6.805,0.187-12.755-1.557-17.663-6.05c-4.889-4.477-7.517-10.038-7.712-16.721c-0.168-5.762,1.524-10.902,5.151-15.346
		c5.156-6.318,11.999-9.012,20.354-8.771c0-2.972,0-5.722,0-8.392c13.764-1.826,23.437-8.734,29.045-21.137c1.869,0,3.677,0,5.484,0
		c0.335,0.68,0.623,1.246,0.895,1.821c2.777,5.872,6.981,10.465,12.424,13.979c1.055,0.682,2.118,1.001,3.371,0.983
		c3.359-0.049,6.72-0.009,10.079-0.025c0.616-0.003,1.231-0.101,1.939-0.164c0-6.167,0-12.197,0-18.457
		c-4.245-0.179-8.134-1.249-11.674-3.426c-3.625-2.23-6.461-5.208-8.472-8.957c-1.97-3.672-2.902-7.593-2.762-11.766
		c0.182-5.39,2-10.169,5.457-14.289c4.51-5.375,10.416-8.017,17.452-8.488c0-7.612,0-15.084,0-22.814
		c-13.663,1.743-23.161,8.811-28.802,21.096c-1.598,0-3.036,0.008-4.473-0.006c-0.313-0.003-0.626-0.083-0.958-0.129
		c-5.663-12.517-15.5-19.341-29.168-21.108c0-2.87,0-5.547,0-8.293c-0.717-0.065-1.185-0.151-1.65-0.143
		c-6.125,0.11-11.458-1.931-15.986-6.009c-0.893-0.804-1.812-0.867-2.859-0.867c-8.959,0.007-17.919,0.023-26.879-0.018
		c-1.278-0.006-2.24,0.344-3.219,1.198c-4.255,3.711-9.226,5.646-14.903,5.692c-0.769,0.006-1.537,0.088-2.521,0.147
		c0,2.932,0,5.617,0,8.334c-13.637,1.775-23.363,8.622-29.042,21.109c-1.813,0-3.628,0-5.475,0
		c-5.721-12.543-15.537-19.407-29.238-21.142c0-2.801,0-5.491,0-8.063c-0.368-0.187-0.502-0.302-0.647-0.319
		c-0.396-0.046-0.797-0.073-1.195-0.068c-6.038,0.073-11.288-1.977-15.752-5.986c-0.886-0.796-1.791-0.888-2.842-0.887
		c-8.959,0.011-17.919,0.022-26.879-0.012c-1.261-0.004-2.231,0.304-3.22,1.17c-4.314,3.775-9.366,5.717-15.133,5.72
		c-0.68,0-1.359,0.112-2.29,0.195c0,2.892,0,5.567,0,8.287c-1.12,0.181-1.982,0.316-2.844,0.461
		c-8.464,1.429-15.44,5.459-20.997,11.989c-0.657,0.772-0.941,1.586-0.94,2.613c0.022,20.879,0.023,41.758,0,62.638
		c-0.001,1.113,0.236,2.057,1.059,2.8c2.424,2.191,4.843,4.39,7.305,6.537c1.32,1.152,2.886,1.479,4.664,1.465
		c9.039-0.071,18.079-0.033,27.119-0.033c0.859,0,1.718,0,2.614,0c1.19,2.771,2.297,5.332,3.39,7.898
		c9.65,22.648,19.313,45.292,28.917,67.959c0.673,1.588,1.563,2.75,3.191,3.288c2.949,0.974,5.893,1.968,8.864,2.868
		c1.117,0.338,2.306,0.439,3.685,0.688c0,2.794,0,5.475,0,8.197c12.25,0.257,21.162,5.462,24.351,17.322
		c3.521,13.093-2.316,22.403-13.969,28.369c1.313,4.312,6.981,17.133,8.162,18.442c5.874-3.792,9.92-9.12,12.619-15.284
		c2.036,0,3.775,0,5.549,0c2.496,5.991,6.299,10.839,11.476,14.597c5.214,3.784,11.103,5.824,17.686,6.542c0,2.891,0,5.571,0,8.199
		c2.245,0.234,4.244,0.328,6.201,0.666c11.419,1.975,19.491,12.172,19.122,24.08c-0.347,11.219-9.303,20.85-20.57,22.11
		c-1.56,0.175-3.126,0.294-4.849,0.454c0,2.788,0,5.408,0,7.982c-2.889,0.691-5.624,1.234-8.288,2.016
		c-2.659,0.781-5.168,1.951-7.501,3.619c2.754,6.435,5.412,12.645,7.948,18.57c3.55-0.48,6.68-0.905,10.057-1.363
		c0-2.732,0-5.415,0-8.07c13.799-1.777,23.487-8.797,29.115-21.195c1.882,0,3.626,0,5.358,0c5.699,12.563,15.462,19.479,29.2,21.225
		c0,2.792,0,5.477,0,8.389c6.815-0.244,12.731,1.568,17.649,6.033c4.986,4.527,7.604,10.187,7.75,16.947
		c0.12,5.57-1.536,10.574-4.998,14.926c-5.15,6.476-12.088,9.141-20.455,9.031c0,2.9,0,5.583,0,8.406
		c-6.569,0.652-12.367,2.741-17.533,6.473c-5.242,3.787-9.07,8.715-11.52,14.611c-1.963,0-3.705,0-5.6,0
		c-2.731-6.588-7.071-11.802-13.201-15.498c0.095,0.836,0.355,1.559,0.655,2.264c2.435,5.739,4.873,11.477,7.317,17.213
		c8.804,20.662,17.631,41.316,26.379,62.003c0.723,1.71,1.74,2.782,3.459,3.282c1.992,0.579,3.971,1.208,5.98,1.719
		c1.289,0.328,2.623,0.482,4.164,0.754c0,2.817,0,5.502,0,8.355c5.842-0.193,11.036,1.106,15.611,4.423
		c4.646,3.368,7.729,7.837,9.085,13.415c1.143,4.701,0.897,9.361-0.841,13.909c-2.276,5.961-6.456,10.185-12.261,13.126
		c2.637,6.186,5.223,12.254,7.895,18.52c5.475-3.952,9.243-8.891,11.654-14.716c2.013,0,3.748,0,5.498,0
		c5.689,12.587,15.489,19.454,29.232,21.206c0,2.771,0,5.451,0,8.12c15.99,0.885,24.499,9.169,25.688,24.896
		c5.589,0,11.07,0,16.465,0c1.316-15.877,9.875-24.098,25.816-24.906c0-2.793,0-5.471,0-7.998c0.33-0.176,0.395-0.234,0.467-0.246
		c0.393-0.068,0.787-0.129,1.182-0.188c11.713-1.724,20.586-7.641,26.022-18.201c1.211-2.353,2.492-3.039,4.923-2.872
		c1.488,0.103,2.209,0.571,2.844,1.905c4.253,8.929,11.224,14.789,20.58,17.864c0.504,0.166,1.049,0.206,1.717,0.333
		c2.646-6.886,5.258-13.662,7.844-20.447c0.12-0.317,0.015-0.721,0.015-1.08c-17.426-0.17-25.164-12.966-25.247-23.32
		c-0.045-5.712,1.742-10.863,5.449-15.264c5.139-6.099,11.867-8.662,20.04-8.527c0-2.93,0-5.672,0-8.4
		c1.364-0.197,2.396-0.313,3.413-0.496c6.036-1.082,11.345-3.684,16.125-7.514c5.063-4.057,8.303-9.51,10.899-15.18
		c3.454-7.543,6.128-15.445,9.091-23.211c0.537-1.408,0.936-2.881,1.26-4.354c0.644-2.919,1.697-5.652,3.266-8.202
		c0.539-0.877,1.004-1.817,1.377-2.777c3.48-8.938,6.935-17.885,10.388-26.832c0.307-0.794,0.556-1.61,0.86-2.502
		c-2.514,0.313-5.482,1.553-8.676,3.578c-6.122,3.882-10.567,9.2-13.393,15.949c-1.005,0-1.879,0-2.753,0c-0.935,0-1.868,0-2.667,0
		c-5.853-12.777-15.693-19.599-29.392-21.309c0-2.886,0-5.564,0-8.233c-16.189,0.099-24.861-11.637-25.263-22.61
		c-0.199-5.453,1.295-10.456,4.586-14.834c5.139-6.836,12.205-9.738,20.842-9.616c0-2.919,0-5.604,0-8.331
		c13.856-1.729,23.621-8.77,29.28-21.307c1.04,0,1.917,0,2.795,0c0.86,0,1.721,0,2.489,0c5.756,12.737,15.58,19.567,29.258,21.336
		c0,2.834,0,5.52,0,8.355c4.934-0.162,9.404,0.8,13.77,3.145c2.439-6.315,4.787-12.396,7.163-18.545
		c-5.556-4.492-11.841-6.758-18.952-7.553c0-2.885,0-5.555,0-8.373c-6.838,0.1-12.783-1.652-17.678-6.171
		c-4.946-4.565-7.547-10.233-7.65-16.997c-0.089-5.844,1.764-11.018,5.547-15.451c5.12-6.002,11.814-8.49,19.913-8.351
		c0-2.901,0-5.646,0-8.352c13.862-1.81,23.569-8.798,29.141-21.171c1.938,0,3.676,0,5.496,0c2.822,6.713,7.214,12.017,13.662,16.025
		c2.528-6.553,4.953-12.835,7.421-19.23c-5.258-2.188-9.305-5.443-12.084-10.153c-2.83-4.797-3.813-9.981-2.986-15.466
		c0.764-5.058,3.004-9.426,6.643-13.025c5.049-4.996,11.266-7.062,18.59-6.865c0-2.955,0-5.703,0-8.127
		c3.242-0.829,6.086-1.613,8.957-2.272c2.176-0.5,3.238-1.839,4.026-3.896c9.491-24.778,19.068-49.524,28.628-74.276
		c0.309-0.8,0.66-1.583,1.021-2.443c3.28,0,6.392,0,9.504,0c3.12,0,6.239,0,9.359,0c3.2,0,6.399,0.008,9.6-0.002
		c3.086-0.01,6.171-0.039,9.183-0.06c0.574-3.333,0.429-21.834-0.169-23.482c-4.758,3.689-10.243,5.085-16.385,4.959
		c0,2.929,0,5.609,0,8.442c-6.552,0.647-12.362,2.717-17.54,6.444c-5.252,3.781-9.09,8.701-11.537,14.599c-2.014,0-3.83,0-5.654,0
		c-2.496-6.02-6.326-10.842-11.508-14.594c-5.212-3.774-11.109-5.783-17.589-6.502c0-2.921,0-5.542,0-8.372
		c-6.806,0.12-12.832-1.627-17.774-6.229c-4.994-4.65-7.574-10.402-7.602-17.258c-0.022-5.579,1.758-10.541,5.299-14.819
		c5.142-6.212,11.938-8.834,20.199-8.642c0-2.958,0-5.7,0-8.375c13.775-1.803,23.449-8.712,29.078-21.118c1.873,0,3.681,0,5.572,0
		c2.462,5.985,6.294,10.808,11.459,14.567c5.213,3.794,11.107,5.827,17.698,6.537c0,2.884,0,5.563,0,8.039
		c3.111,0.503,6.019,0.667,8.724,1.496c2.743,0.84,5.285,2.335,8.048,3.605c0-7.324-0.021-14.52,0.021-21.716
		c0.006-1.066-0.489-1.586-1.338-2.02c-3.372-1.721-6.894-2.969-10.651-3.521c-0.92-0.136-1.83-0.331-2.954-0.538
		c0-2.862,0-5.537,0-8.11c-0.409-0.142-0.554-0.228-0.704-0.238c-0.478-0.033-0.957-0.05-1.438-0.05
		c-5.768-0.004-10.815-1.963-15.113-5.759c-1-0.884-1.994-1.125-3.241-1.122c-8.88,0.029-17.76,0.042-26.639-0.013
		c-1.371-0.008-2.382,0.371-3.427,1.268c-4.277,3.672-9.25,5.615-14.931,5.629c-0.697,0.001-1.394,0.086-2.345,0.149
		c0,2.854,0,5.539,0,8.404c-6.556,0.632-12.358,2.721-17.53,6.444c-5.248,3.779-9.095,8.692-11.506,14.549c-2.05,0-3.859,0-5.697,0
		c-2.501-6.011-6.345-10.83-11.527-14.57c-5.165-3.727-10.98-5.774-17.519-6.449c0-2.868,0-5.552,0-8.074
		c-0.404-0.227-0.533-0.353-0.676-0.369c-0.475-0.052-0.954-0.089-1.432-0.086c-5.859,0.032-10.966-1.968-15.348-5.8
		c-0.917-0.802-1.831-1.093-3.02-1.088c-8.959,0.037-17.919,0.037-26.879,0.002c-1.262-0.005-2.253,0.288-3.24,1.155
		c-4.312,3.785-9.36,5.727-15.128,5.733c-0.691,0.001-1.383,0.106-2.286,0.181c0,2.883,0,5.571,0,8.246
		c-1.762,0.349-3.3,0.653-4.751,0.941c-0.475,3.235-0.347,20.714,0.134,22.453c2.187-0.167,4.375-0.334,6.807-0.52
		c0-2.871,0-5.558,0-8.24c13.79-1.755,23.518-8.729,29.147-21.173c1.88,0,3.631,0,5.422,0c5.649,12.546,15.446,19.417,29.069,21.19
		C600.459,204.18,600.459,206.802,600.459,209.891z M558.442,275.181c-3.212-3.221-6.438-5.558-10.161-6.979
		c-3.688-1.407-7.553-2.348-11.674-3.594c0-2.404,0-5.074,0-7.783c-2.401-0.165-4.524-0.312-6.823-0.47c0,6.344,0,12.515,0,18.826
		C539.229,275.181,548.539,275.181,558.442,275.181z"/>
    <path fill-rule="evenodd" fill="#879EA8" clip-rule="evenodd" d="M534.735,592.754c0,2.815,0,5.436,0,8.301c8.433-0.08,15.482,2.685,20.623,9.406
		c3.487,4.56,5.075,9.76,4.719,15.488c-0.405,6.543-3.124,12.006-8.052,16.324c-4.864,4.262-10.674,5.922-17.29,5.795
		c0,2.872,0,5.553,0,8.342c-13.733,1.725-23.511,8.623-29.174,21.053c-0.308,0.07-0.536,0.143-0.771,0.172
		c-3.06,0.398-5.724,0.074-6.515-3.616c-5.689-9.862-14.204-15.562-25.433-17.268c-0.543-0.083-1.086-0.173-1.892-0.302
		c0-2.709,0-5.381,0-8.186c-1.975-0.196-3.704-0.318-5.419-0.547c-11.271-1.494-19.939-11.34-20.108-22.807
		c-0.169-11.541,8.326-21.649,19.704-23.395c1.799-0.276,3.624-0.379,5.69-0.587c0-2.688,0-5.371,0-8.222
		c6.608-0.668,12.481-2.749,17.704-6.531c5.242-3.797,9.039-8.744,11.522-14.658c1.915,0,3.652,0,5.422,0
		C511.164,584.039,520.884,591.002,534.735,592.754z"/>
    <path fill-rule="evenodd" fill="#879EA8" clip-rule="evenodd" d="M405.051,679.373c0-2.992,0-5.609,0-8.355c13.638-1.71,23.42-8.588,29.205-21.295
		c1.265,0,2.611,0.066,3.949-0.02c1.156-0.076,1.698,0.43,2.14,1.451c1.537,3.557,3.705,6.705,6.438,9.459
		c5.722,5.768,12.592,9.189,20.68,10.133c0.314,0.037,0.625,0.112,0.936,0.186c0.066,0.016,0.117,0.099,0.425,0.373
		c0,2.451,0,5.134,0,8.045c8.335-0.135,15.245,2.568,20.394,9.02c3.523,4.416,5.189,9.52,5.047,15.15
		c-0.108,4.319-1.366,8.338-3.731,11.98c-2.315,3.564-5.374,6.313-9.151,8.259c-3.844,1.98-8.002,2.575-12.503,2.623
		c0,2.821,0,5.504,0,8.287c-1.466,0.244-2.719,0.404-3.95,0.665c-11.189,2.378-19.459,8.563-24.431,18.938
		c-0.608,1.268-1.261,1.957-2.687,1.729c-0.313-0.049-0.645-0.046-0.958,0c-1.903,0.279-2.871-0.479-3.783-2.287
		c-5.434-10.771-14.303-16.891-26.187-18.713c-0.537-0.082-1.075-0.16-1.847-0.275c0-2.78,0-5.463,0-8.354
		c-8.237,0.082-15.121-2.517-20.258-8.864c-3.607-4.456-5.348-9.596-5.162-15.34c0.215-6.653,2.832-12.235,7.738-16.707
		C392.265,680.982,398.197,679.229,405.051,679.373z"/>
    <path fill-rule="evenodd" fill="#879EA8" clip-rule="evenodd" d="M373.787,677.565c-1.842,0-3.584,0-5.444,0
		c-5.659-12.433-15.391-19.396-29.133-21.142c0-2.762,0-5.444,0-8.324c-8.156,0.094-15.001-2.423-20.146-8.656
		c-3.824-4.633-5.572-9.994-5.282-16.01c0.317-6.576,3.008-12.029,7.877-16.394c4.889-4.382,10.77-6.071,17.473-5.942
		c0-2.819,0-5.504,0-8.328c13.694-1.75,23.493-8.607,29.264-21.352c0.754,0,1.612,0,2.47,0c0.877,0,1.754,0,2.8,0
		c5.646,12.537,15.397,19.588,29.268,21.324c0,2.705,0,5.388,0,8.315c8.436-0.091,15.408,2.664,20.563,9.235
		c3.381,4.311,5.029,9.287,4.893,14.729c-0.167,6.708-2.773,12.417-7.771,16.954c-4.919,4.467-10.858,6.188-17.566,6.119
		c0,2.828,0,5.441,0,8.279C389.454,658.096,379.58,664.859,373.787,677.565z"/>
    <path fill-rule="evenodd" fill="#879EA8" clip-rule="evenodd" d="M271.239,335.148c0,2.694,0,5.313,0,8.178
		c-13.577,1.743-23.44,8.521-29.23,21.274c-0.822,0-1.766,0-2.71,0c-0.873,0-1.747,0-2.668,0
		c-5.716-12.572-15.479-19.507-29.224-21.238c0-2.766,0-5.448,0-8.358c-8.449,0.162-15.417-2.607-20.559-9.202
		c-3.528-4.526-5.167-9.736-4.869-15.453c0.603-11.554,9.999-22.686,25.306-22.317c0-2.734,0-5.479,0-8.3
		c13.79-1.772,23.596-8.629,29.308-21.198c1.818,0,3.627,0,5.439,0c5.657,12.481,15.355,19.35,29.026,21.151
		c0,2.641,0,5.328,0,8.298c0.982,0.06,1.739,0.135,2.497,0.149c11.914,0.216,21.928,9.369,22.98,21.013
		c1.105,12.22-7.013,23.14-18.955,25.384C275.563,334.911,273.477,334.94,271.239,335.148z"/>
    <path fill-rule="evenodd" fill="#879EA8" clip-rule="evenodd" d="M205.309,201.436c0,2.743,0,5.426,0,8.355c8.444-0.17,15.408,2.604,20.558,9.18
		c3.537,4.518,5.186,9.719,4.878,15.439c-0.352,6.529-3.013,12.029-7.906,16.398c-4.903,4.379-10.78,6.056-17.46,5.928
		c0,2.867,0,5.557,0,8.4c-6.505,0.706-12.338,2.707-17.517,6.436c-5.189,3.737-9.034,8.543-11.572,14.61c-1.761,0-3.568,0-5.607,0
		c-5.569-12.425-15.422-19.356-29.145-21.094c0-2.754,0-5.375,0-8.203c-1.398-0.114-2.641-0.219-3.884-0.317
		c-9.919-0.788-18.134-7.612-20.745-17.237c-3.916-14.434,6.715-28.89,21.654-29.439c0.866-0.032,1.735-0.004,2.869-0.004
		c0-2.875,0-5.551,0-8.402c13.673-1.764,23.528-8.548,29.248-21.172c1.76,0,3.569,0,5.484,0
		C181.813,192.766,191.568,199.692,205.309,201.436z"/>
    <path fill-rule="evenodd" fill="#879EA8" clip-rule="evenodd" d="M666.419,335.178c0,2.788,0,5.402,0,8.169
		c-13.658,1.752-23.472,8.622-29.137,21.137c-0.607,0.041-1.161,0.103-1.714,0.111c-1.195,0.016-2.391,0.005-3.691,0.005
		c-5.697-12.503-15.426-19.488-29.195-21.233c0-2.755,0-5.438,0-8.359c-8.379,0.159-15.301-2.538-20.451-9.018
		c-3.462-4.355-5.116-9.357-4.988-14.928c0.154-6.759,2.775-12.416,7.764-16.944c4.916-4.464,10.841-6.237,17.643-6.024
		c0-2.904,0-5.59,0-8.371c13.718-1.786,23.513-8.66,29.182-21.224c1.756,0,3.506,0,5.393,0c5.614,12.442,15.347,19.407,29.12,21.194
		c0,2.685,0,5.369,0,8.269c0.929,0.071,1.614,0.158,2.3,0.17c12.021,0.22,21.939,9.196,23.061,20.878
		c1.172,12.225-6.564,22.898-18.525,25.418C671.088,334.87,668.914,334.913,666.419,335.178z"/>
    <path fill-rule="evenodd" fill="#879EA8" clip-rule="evenodd" d="M307.916,286.264c-1.938,0-3.683,0-5.455,0
		c-5.707-12.529-15.479-19.449-29.166-21.164c0-2.765,0-5.378,0-8.23c-1.35-0.104-2.514-0.195-3.678-0.284
		c-9.832-0.75-17.934-7.215-20.782-16.582c-4.432-14.579,6.277-29.576,21.504-30.117c0.865-0.031,1.73-0.086,2.87-0.144
		c0-2.787,0-5.464,0-8.246c13.699-1.826,23.554-8.619,29.229-21.208c1.828,0,3.64,0,5.424,0
		c5.69,12.904,16.643,19.686,29.153,21.146c0,2.696,0,5.446,0,8.378c7.998-0.201,14.613,2.262,19.737,8.117
		c3.601,4.115,5.529,8.936,5.709,14.42c0.23,7.031-2.206,13.002-7.257,17.876c-4.989,4.813-11.141,6.644-18.127,6.529
		c0,2.877,0,5.494,0,8.312C323.462,266.835,313.616,273.646,307.916,286.264z"/>
    <path fill-rule="evenodd" fill="#879EA8" clip-rule="evenodd" d="M273.305,366.384c0-3.008,0-5.696,0-8.419
		c13.767-1.761,23.517-8.694,29.223-21.307c0.633,0,1.266,0,1.898,0c1.115,0,2.23,0,3.403,0
		c5.657,12.565,15.392,19.512,29.156,21.294c0,2.705,0,5.386,0,8.263c1.019,0.066,1.785,0.144,2.551,0.163
		c11.814,0.286,21.785,9.51,22.854,20.894c1.177,12.544-7.174,23.188-18.795,25.496c-2.022,0.401-4.115,0.448-6.467,0.688
		c0,2.675,0,5.347,0,8.149c-13.742,1.757-23.543,8.636-29.212,21.146c-1.825,0-3.571,0-5.458,0
		c-5.643-12.427-15.393-19.372-29.085-21.115c0-2.704,0-5.314,0-8.157c-1.588-0.151-2.988-0.273-4.384-0.418
		c-7.478-0.779-13.372-4.313-17.375-10.618c-4.797-7.554-5.191-15.57-1.037-23.49c4.155-7.92,10.984-12.012,19.914-12.563
		C271.275,366.342,272.066,366.384,273.305,366.384z"/>
</g>
</svg>
