<svg width="23" height="22" viewBox="0 0 23 22" xmlns="http://www.w3.org/2000/svg"><g fill-rule="nonzero" fill="none"><path d="M14.333 14.917a.417.417 0 0 0-.416.416V18.5c0 .69-.561 1.25-1.25 1.25H3.5c-.69 0-1.25-.56-1.25-1.25v-15c0-.69.56-1.25 1.25-1.25h9.167c.689 0 1.25.56 1.25 1.25v3.167a.417.417 0 0 0 .833 0V3.5a2.086 2.086 0 0 0-2.083-2.083H3.5A2.086 2.086 0 0 0 1.417 3.5v15c0 1.148.935 2.083 2.083 2.083h9.167A2.086 2.086 0 0 0 14.75 18.5v-3.167a.417.417 0 0 0-.417-.416z" stroke="#FFF" fill="#FFF"/><path d="M21.55 10.84a.404.404 0 0 0-.08-.122c-.004-.003-.005-.008-.01-.011l-3.332-3.334a.417.417 0 0 0-.59.59l2.622 2.621h-9.827a.417.417 0 0 0 0 .834h9.828l-2.623 2.622a.417.417 0 1 0 .59.588l3.334-3.333c.018-.018.026-.042.04-.062.017-.024.037-.045.049-.072a.418.418 0 0 0 0-.32z" stroke="#27CFC3" fill="#27CFC3"/></g></svg>